<?xml version="1.0" encoding="utf-8"?>
<!-- Generator: Adobe Illustrator 17.0.1, SVG Export Plug-In . SVG Version: 6.00 Build 0)  -->
<!DOCTYPE svg PUBLIC "-//W3C//DTD SVG 1.1//EN" "http://www.w3.org/Graphics/SVG/1.1/DTD/svg11.dtd">
<svg version="1.1" id="Livello_1" xmlns="http://www.w3.org/2000/svg" xmlns:xlink="http://www.w3.org/1999/xlink" x="0px" y="0px"
	 width="566.93px" height="566.93px" viewBox="0 0 566.93 566.93" enable-background="new 0 0 566.93 566.93" xml:space="preserve">
<path fill="#E94F36" d="M216.598,78.867C99.184,78.867,4,174.05,4,291.465s95.184,212.598,212.598,212.598
	s212.598-95.184,212.598-212.598S334.013,78.867,216.598,78.867z M217,469.63c-97.846,0-177.165-79.32-177.165-177.165
	S119.154,115.3,217,115.3s177.165,79.32,177.165,177.165S314.846,469.63,217,469.63z"/>
<rect x="340.33" y="291.464" fill="#E94F36" width="212.598" height="212.598"/>
<polygon fill="#E94F36" points="123.5,375.465 197.5,275.465 230.5,314.465 "/>
<polygon fill="#E94F36" points="304.5,214.465 230.5,314.465 197.5,275.465 "/>
<polygon fill="#E94F36" points="293,384.465 193,310.465 232,277.465 "/>
<polygon fill="#E94F36" points="132,203.465 232,277.465 193,310.465 "/>
</svg>
