<?xml version="1.0" encoding="utf-8"?>
<!-- Generator: Adobe Illustrator 17.0.1, SVG Export Plug-In . SVG Version: 6.00 Build 0)  -->
<!DOCTYPE svg PUBLIC "-//W3C//DTD SVG 1.1//EN" "http://www.w3.org/Graphics/SVG/1.1/DTD/svg11.dtd">
<svg version="1.1" id="Livello_1" xmlns="http://www.w3.org/2000/svg" xmlns:xlink="http://www.w3.org/1999/xlink" x="0px" y="0px"
	 width="566.93px" height="566.93px" viewBox="0 0 566.93 566.93" enable-background="new 0 0 566.93 566.93" xml:space="preserve">
<path fill="#BBBBBB" d="M216.598,78.867C99.184,78.867,4,174.05,4,291.465s95.184,212.598,212.598,212.598
	s212.598-95.184,212.598-212.598S334.013,78.867,216.598,78.867z M217,469.63c-97.846,0-177.165-79.32-177.165-177.165
	S119.154,115.3,217,115.3s177.165,79.32,177.165,177.165S314.846,469.63,217,469.63z"/>
<rect x="340.33" y="291.464" fill="#BCBCBB" width="212.598" height="212.598"/>
<path fill="#BBBBBB" d="M218.598,221.599c-39.138,0-70.866,31.728-70.866,70.866c0,39.138,31.728,70.866,70.866,70.866
	c39.138,0,70.866-31.728,70.866-70.866C289.465,253.327,257.737,221.599,218.598,221.599z M218.598,336.52
	c-23.483,0-42.52-19.037-42.52-42.52s19.037-42.52,42.52-42.52c23.483,0,42.52,19.037,42.52,42.52S242.081,336.52,218.598,336.52z"
	/>
</svg>
